<?xml version="1.0" standalone="no"?>
<!DOCTYPE svg PUBLIC "-//W3C//DTD SVG 20010904//EN"
 "http://www.w3.org/TR/2001/REC-SVG-20010904/DTD/svg10.dtd">
<svg version="1.0" xmlns="http://www.w3.org/2000/svg"
 width="700.000000pt" height="700.000000pt" viewBox="0 0 700.000000 700.000000"
 preserveAspectRatio="xMidYMid meet">
<metadata>
Created by potrace 1.11, written by Peter Selinger 2001-2013
</metadata>
<g transform="translate(0.000000,700.000000) scale(0.100000,-0.100000)"
fill="#000000" stroke="none">
<path d="M1984 6183 l1 -117 115 0 116 0 0 -113 c0 -62 -2 -114 -5 -114 -3 -1
-265 -3 -581 -4 l-575 -1 -3 -117 -3 -117 116 0 c85 0 115 -3 116 -12 4 -50 3
-4648 -1 -4649 -3 -1 -134 -3 -292 -4 l-288 -1 0 758 0 759 139 -105 139 -105
19 22 c10 12 31 39 46 60 15 20 38 52 52 71 l25 33 -152 114 c-84 62 -161 121
-170 129 -16 15 -4 25 152 143 l170 127 -67 90 c-36 49 -69 90 -74 90 -4 0
-68 -45 -141 -99 l-133 -99 -3 173 -2 172 -114 0 c-97 0 -115 -3 -118 -16 -2
-9 -3 -87 -2 -173 0 -111 -3 -155 -10 -151 -14 8 -119 86 -126 93 -21 22 -126
93 -138 94 -13 1 -149 -171 -141 -178 2 -2 79 -59 171 -128 l167 -125 -165
-122 c-90 -68 -166 -127 -169 -131 -4 -7 61 -102 111 -162 l22 -27 109 81 c59
45 122 92 139 105 l31 23 -1 -758 -1 -757 -230 0 -230 -1 -3 -117 -3 -117
3501 0 3500 0 0 118 0 117 -217 -1 c-120 -1 -225 0 -234 2 -13 4 -15 85 -15
759 l0 754 30 -23 c195 -146 249 -186 251 -184 1 2 32 43 70 92 l68 89 -31 26
c-16 14 -93 73 -171 130 l-140 104 167 125 c92 69 169 126 171 128 5 5 -130
184 -138 184 -7 0 -193 -137 -254 -186 -9 -8 -19 -14 -20 -14 -2 0 -3 75 -3
166 1 91 -1 169 -4 173 -3 4 -56 8 -117 8 l-113 1 -2 -174 -3 -173 -120 90
c-66 49 -128 96 -137 104 -15 12 -24 4 -87 -80 l-71 -95 162 -121 c90 -67 167
-125 171 -129 4 -4 -69 -64 -162 -135 l-171 -127 22 -32 c12 -17 44 -59 70
-93 l49 -63 140 106 139 105 0 -759 0 -758 -287 0 c-159 0 -290 3 -293 7 -4 5
-5 4617 -1 4652 1 4 53 7 116 7 l116 0 -3 117 -3 117 -577 0 c-514 0 -578 2
-582 15 -2 9 -3 61 -2 116 l1 100 95 1 c52 1 104 2 116 3 20 1 21 7 21 116 l0
115 -1517 0 -1518 0 2 -117z m2554 -122 c9 -1 12 -521 12 -2564 l0 -2563 -175
0 -175 0 0 359 c0 400 -2 411 -65 441 -49 23 -1220 24 -1269 1 -61 -29 -61
-25 -66 -430 l-5 -370 -172 -1 -173 -1 0 2562 c0 1409 2 2564 4 2566 4 3 2046
4 2084 0z m-2323 -2793 c0 -1543 -3 -2329 -10 -2331 -9 -4 -674 -2 -685 1 -4
2 -5 4648 -1 4660 1 1 157 1 348 0 l348 -3 0 -2327z m3269 -4 l1 -2330 -347 0
c-192 0 -348 2 -349 5 -1 4 -2 1053 -3 2334 l-1 2327 349 -2 349 -3 1 -2331z
m-2104 -1753 c4 -1 5 -490 1 -561 -1 -13 -25 -15 -168 -14 -93 1 -171 2 -174
3 -5 1 -5 575 -1 577 4 1 337 -3 342 -5z m586 -276 c1 -154 -1 -285 -3 -290
-2 -6 -67 -10 -170 -10 l-167 0 -5 25 c-5 19 -6 495 -2 545 1 7 60 11 174 10
l172 0 1 -280z"/>
<path d="M2714 5832 l-31 -3 0 -170 c1 -197 -13 -179 137 -176 l95 2 1 168 c1
107 -2 170 -9 174 -11 7 -140 10 -193 5z"/>
<path d="M3167 5832 c-15 -3 -17 -22 -17 -176 l0 -173 115 0 c63 0 115 2 116
6 7 38 2 334 -6 339 -10 6 -179 9 -208 4z"/>
<path d="M3639 5830 c-23 -6 -23 -8 -24 -160 0 -85 3 -162 7 -171 6 -13 26
-16 118 -16 l110 0 0 173 c0 96 -3 174 -7 175 -38 4 -187 3 -204 -1z"/>
<path d="M4091 5830 c-6 -4 -8 -298 -3 -336 1 -7 40 -11 115 -10 l112 1 1 168
c1 106 -2 170 -9 174 -12 7 -206 10 -216 3z"/>
<path d="M2683 5075 l0 -175 116 0 117 0 1 175 0 175 -116 0 -117 0 -1 -175z"/>
<path d="M3150 5075 l0 -175 118 0 117 0 -1 167 c-1 93 -2 171 -3 176 -1 4
-53 7 -116 7 l-115 0 0 -175z"/>
<path d="M3618 5243 c-2 -5 -4 -82 -3 -173 l0 -165 118 -3 117 -3 0 176 0 175
-114 0 c-63 0 -116 -3 -118 -7z"/>
<path d="M4083 5075 l0 -175 117 0 117 0 -1 175 0 175 -116 0 -117 0 0 -175z"/>
<path d="M2686 4661 c-7 -12 -2 -336 5 -341 6 -4 96 -5 200 -1 l26 1 -1 173
-1 172 -113 1 c-62 0 -114 -2 -116 -5z"/>
<path d="M3150 4491 l0 -176 115 0 c63 0 115 2 116 5 3 14 5 327 2 336 -3 7
-43 11 -119 11 l-114 0 0 -176z"/>
<path d="M3619 4666 c-1 -1 -2 -79 -3 -173 0 -108 3 -174 9 -176 9 -2 176 -1
213 2 9 1 12 43 12 175 l0 173 -115 0 c-63 -1 -115 -1 -116 -1z"/>
<path d="M4086 4661 c-6 -10 -3 -341 3 -342 25 -4 215 -3 221 1 4 3 7 82 6
175 l-1 170 -113 1 c-62 0 -114 -2 -116 -5z"/>
<path d="M2709 4082 l-26 -3 1 -172 1 -172 113 -2 c61 0 113 2 113 5 1 4 3 80
4 170 2 112 -1 164 -9 169 -11 7 -149 11 -197 5z"/>
<path d="M3154 4081 c-2 -2 -4 -82 -4 -176 l0 -171 115 -1 c63 -1 115 2 116 6
7 40 2 334 -6 339 -11 7 -214 9 -221 3z"/>
<path d="M3627 4078 c-9 -4 -12 -53 -11 -170 1 -89 2 -166 3 -169 1 -3 53 -6
116 -6 l115 0 0 173 c0 96 -3 174 -7 175 -34 5 -207 3 -216 -3z"/>
<path d="M4091 4080 c-6 -4 -9 -320 -3 -341 3 -8 222 -9 224 0 0 3 2 81 3 174
1 114 -2 167 -9 168 -37 4 -209 3 -215 -1z"/>
<path d="M2683 3325 l1 -175 116 0 116 0 1 175 0 175 -117 0 -117 0 0 -175z"/>
<path d="M3150 3325 l0 -176 117 3 117 3 0 170 1 170 -118 3 -117 3 0 -176z"/>
<path d="M3617 3333 c0 -93 2 -171 2 -175 1 -5 53 -8 116 -8 l115 0 0 175 0
175 -117 0 -118 0 2 -167z"/>
<path d="M4083 3325 l0 -175 117 0 117 0 0 175 0 175 -117 0 -117 0 0 -175z"/>
<path d="M2689 2916 c-1 -1 -3 -77 -4 -169 -2 -146 0 -169 14 -175 13 -6 147
-8 207 -3 9 1 11 48 9 169 -1 92 -3 170 -4 174 -1 4 -210 8 -222 4z"/>
<path d="M3150 2743 c0 -95 3 -173 8 -174 4 0 54 -1 110 -2 84 -2 105 1 111
13 5 11 7 297 2 331 -1 4 -53 6 -116 6 l-115 0 0 -174z"/>
<path d="M3619 2901 c-7 -88 -2 -317 7 -325 8 -9 122 -12 212 -7 9 1 12 43 12
175 l0 173 -115 0 c-97 -1 -115 -3 -116 -16z"/>
<path d="M4089 2916 c-1 -1 -3 -79 -4 -173 -3 -171 -3 -173 19 -174 96 -4 199
-3 205 1 4 3 7 82 7 175 l-1 170 -112 1 c-62 1 -114 1 -114 0z"/>
<path d="M2691 2330 c-4 -3 -7 -81 -7 -175 l1 -170 115 0 115 0 1 173 c1 94
-1 172 -5 173 -26 4 -214 3 -220 -1z"/>
<path d="M3154 2331 c-2 -2 -4 -82 -4 -176 l0 -172 111 0 c90 0 111 3 118 16
9 20 8 318 -2 328 -8 7 -215 11 -223 4z"/>
<path d="M3619 2315 c-3 -57 -4 -302 -1 -316 3 -14 20 -17 118 -16 l114 0 0
174 c0 172 0 173 -22 174 -13 1 -65 2 -115 3 -86 1 -93 0 -94 -19z"/>
<path d="M4098 2332 c-13 -2 -15 -29 -15 -173 0 -197 -14 -179 137 -176 l95 2
0 174 0 174 -101 1 c-55 1 -107 0 -116 -2z"/>
<path d="M1750 5075 l0 -175 118 0 117 0 0 172 -1 173 -117 3 -117 3 0 -176z"/>
<path d="M1752 4491 l3 -175 112 0 c92 -1 113 2 115 14 3 12 2 311 -1 331 -1
4 -53 6 -116 6 l-115 0 2 -176z"/>
<path d="M1754 4081 c-2 -2 -4 -82 -4 -176 l0 -172 113 2 c61 1 114 3 117 3 8
3 4 331 -4 339 -8 8 -214 11 -222 4z"/>
<path d="M1750 3325 l0 -175 115 0 c63 0 116 3 116 8 1 4 2 82 3 175 l1 167
-117 0 -118 0 0 -175z"/>
<path d="M1750 2745 c0 -130 3 -174 13 -177 10 -3 134 -2 202 1 19 1 20 8 20
171 0 93 -2 171 -5 172 -3 0 -56 2 -117 3 l-113 3 0 -173z"/>
<path d="M1754 2331 c-2 -2 -4 -82 -4 -176 l0 -172 115 0 c98 0 115 2 116 16
4 57 3 324 -1 329 -5 8 -219 10 -226 3z"/>
<path d="M1750 1575 l0 -175 114 0 c82 0 115 3 118 13 3 10 2 283 -1 325 -1 9
-31 12 -116 12 l-115 0 0 -175z"/>
<path d="M5018 5238 c-2 -7 -3 -85 -3 -173 l0 -160 118 -3 117 -3 0 176 0 175
-114 0 c-82 0 -115 -3 -118 -12z"/>
<path d="M5019 4661 c-7 -42 -2 -334 6 -340 8 -6 153 -7 213 -2 9 1 12 43 12
174 l0 174 -115 0 c-63 0 -115 -2 -116 -6z"/>
<path d="M5027 4078 c-9 -4 -12 -54 -11 -175 l0 -168 117 -1 117 -1 0 173 c0
96 -3 174 -7 175 -36 5 -207 3 -216 -3z"/>
<path d="M5016 3333 c1 -93 2 -171 3 -175 1 -5 53 -8 116 -8 l115 0 0 175 0
175 -117 0 -118 0 1 -167z"/>
<path d="M5019 2906 c-3 -33 -4 -313 -1 -326 2 -12 23 -15 115 -14 l112 0 3
176 2 175 -115 0 c-77 0 -115 -3 -116 -11z"/>
<path d="M5026 2324 c-9 -8 -14 -244 -7 -330 1 -8 38 -11 116 -11 l115 0 0
174 c0 95 -3 173 -7 174 -49 7 -209 2 -217 -7z"/>
<path d="M5018 1743 c-2 -5 -3 -82 -3 -173 l1 -165 117 -3 117 -3 0 176 0 175
-114 0 c-63 0 -116 -3 -118 -7z"/>
</g>
</svg>
